<svg width="130" height="32" viewBox="0 0 130 32" fill="none" xmlns="http://www.w3.org/2000/svg">
<g clip-path="url(#clip0_1822_1380)">
<path fill-rule="evenodd" clip-rule="evenodd" d="M9.23867 23.2427L9.27008 23.2683C10.0609 23.9211 19.6441 31.8261 19.9734 32H11.4768C10.231 32 9.22025 30.9632 9.2235 29.6853L9.23867 23.2427ZM9.64708 16C19.0937 20.1813 26.6305 31.4837 26.6305 31.4837C17.004 22.2965 5.89767 19.1979 5.15992 18.9995L5.12092 18.9888H9.64708V16ZM9.44883 6.70934C9.44883 6.70934 23.8528 15.7045 27.6542 23.7419C27.6542 23.7419 16.2792 13.5744 3.58475 10.8149L9.51383 11.232L9.44883 6.70934ZM0 0.0576077C5.42967 -0.327459 11.0955 1.34294 11.0955 1.34294L26.7876 1.68961C27.5546 1.70667 28.1667 2.33387 28.1667 3.10401V16C18.6463 3.39841 0 0.0576077 0 0.0576077Z" fill="white"/>
<path d="M46.6245 24.5333C48.0524 24.5333 50.102 23.8261 50.83 22.336L50.986 24.1547H53.9706V11.7035H50.934L50.83 13.4208C50.1031 12.1579 48.4153 11.4005 46.7025 11.4005C42.991 11.4005 40.0834 13.648 40.0834 17.9168C40.0834 22.2603 42.861 24.5333 46.6245 24.5333ZM47.0395 21.7045C44.9378 21.7045 43.25 20.2901 43.25 17.9168C43.25 15.5424 44.9378 14.1536 47.0395 14.1536C49.5311 14.1536 50.777 16.048 50.777 17.9168C50.777 19.8101 49.5311 21.7045 47.0395 21.7045ZM58.2292 9.98613C59.163 9.98613 60.098 9.38026 60.098 8.19413C60.0969 6.98026 59.1609 6.39999 58.2281 6.39999C57.2932 6.39999 56.3583 6.98133 56.3583 8.19306C56.3583 9.38026 57.2932 9.98613 58.2281 9.98613H58.2292ZM59.812 24.1547V11.6533H56.6454V24.1547H59.812ZM65.8353 24.1547V17.5883C65.8353 15.2896 67.366 14.4309 69.0268 14.4309C70.0657 14.4309 70.6626 14.7083 71.3115 15.2395L72.7394 12.5621C72.0385 11.8795 70.7666 11.3749 69.4428 11.3749C68.145 11.3749 66.8211 11.6021 65.8353 13.1435L65.6002 11.7035H62.6676V24.1547H65.8342H65.8353ZM79.8775 24.1547L85.2508 11.6779H83.849L79.1765 22.7147L74.5041 11.6779H73.1023L78.4756 24.1547H79.8775ZM93.1418 24.3317C95.1925 24.3317 97.4242 23.5232 98.67 21.9317L97.7622 21.2245C96.8013 22.4619 94.8285 23.1189 93.1418 23.1189C90.4941 23.1189 88.1834 21.4272 87.9245 18.4971H99.475C99.501 18.1685 99.527 17.8411 99.527 17.5371C99.527 13.3451 96.4904 11.4763 93.1418 11.4763C89.5343 11.4763 86.6266 14.1781 86.6266 17.9168C86.6266 21.8816 89.5332 24.3317 93.1418 24.3317ZM98.3331 17.4112H87.9234C88.2083 14.3552 90.493 12.6133 93.1407 12.6133C96.2293 12.6133 98.306 14.3307 98.332 17.4112H98.3331ZM104.043 24.1547V17.2096C104.043 14.608 105.912 12.6635 108.612 12.6635C111.337 12.6635 113.103 14.1781 113.103 16.9824V24.1547H114.375V16.9568C114.375 13.4965 112.013 11.4507 108.586 11.4507C106.795 11.4763 105.004 12.1835 104.017 13.9008V11.6779H102.772V24.1547H104.043ZM123.408 24.3573C125.589 24.3573 127.69 23.296 128.755 21.4027V24.1547H130V6.47466H128.754V14.4053C127.715 12.384 125.64 11.4752 123.433 11.4752C119.85 11.4752 116.996 13.7984 116.996 17.9157C116.996 22.0576 119.824 24.3552 123.407 24.3552L123.408 24.3573ZM123.486 23.1445C120.604 23.1445 118.243 21.376 118.243 17.9168C118.243 14.4064 120.604 12.6635 123.486 12.6635C126.445 12.6635 128.729 14.7851 128.729 17.8912C128.729 20.9973 126.498 23.1445 123.486 23.1445Z" fill="white"/>
</g>
<defs>
<clipPath id="clip0_1822_1380">
<rect width="130" height="32" fill="white"/>
</clipPath>
</defs>
</svg>
